<mxfile host="app.diagrams.net" modified="2023-11-01T09:24:54.624Z" agent="Mozilla/5.0 (Windows NT 6.1; Win64; x64; rv:109.0) Gecko/20100101 Firefox/115.0" etag="nDSRh8rJRQvPGT_tc-wd" version="21.6.6" type="device">
  <diagram id="C5RBs43oDa-KdzZeNtuy" name="Page-1">
    <mxGraphModel dx="702" dy="846" grid="1" gridSize="10" guides="1" tooltips="1" connect="1" arrows="1" fold="1" page="1" pageScale="1" pageWidth="827" pageHeight="1169" math="0" shadow="0">
      <root>
        <mxCell id="WIyWlLk6GJQsqaUBKTNV-0" />
        <mxCell id="WIyWlLk6GJQsqaUBKTNV-1" parent="WIyWlLk6GJQsqaUBKTNV-0" />
        <mxCell id="WIyWlLk6GJQsqaUBKTNV-3" value="START" style="rounded=1;whiteSpace=wrap;html=1;fontSize=12;glass=0;strokeWidth=1;shadow=0;" parent="WIyWlLk6GJQsqaUBKTNV-1" vertex="1">
          <mxGeometry x="160" y="40" width="200" height="40" as="geometry" />
        </mxCell>
        <mxCell id="PWNka681XxtPfNcfbGtj-29" value="" style="edgeStyle=orthogonalEdgeStyle;rounded=0;orthogonalLoop=1;jettySize=auto;html=1;" edge="1" parent="WIyWlLk6GJQsqaUBKTNV-1" source="WIyWlLk6GJQsqaUBKTNV-10" target="PWNka681XxtPfNcfbGtj-13">
          <mxGeometry relative="1" as="geometry" />
        </mxCell>
        <mxCell id="PWNka681XxtPfNcfbGtj-30" value="ДА" style="edgeLabel;html=1;align=center;verticalAlign=middle;resizable=0;points=[];" vertex="1" connectable="0" parent="PWNka681XxtPfNcfbGtj-29">
          <mxGeometry x="-0.4419" y="-1" relative="1" as="geometry">
            <mxPoint as="offset" />
          </mxGeometry>
        </mxCell>
        <mxCell id="WIyWlLk6GJQsqaUBKTNV-10" value="&lt;div&gt;Длина элемента&lt;/div&gt;&lt;div&gt;array1[i]&lt;br&gt;&lt;/div&gt;&lt;div&gt;&amp;lt;= 3?&lt;br&gt;&lt;/div&gt;" style="rhombus;whiteSpace=wrap;html=1;shadow=0;fontFamily=Helvetica;fontSize=12;align=center;strokeWidth=1;spacing=6;spacingTop=-4;" parent="WIyWlLk6GJQsqaUBKTNV-1" vertex="1">
          <mxGeometry x="160" y="570" width="200" height="80" as="geometry" />
        </mxCell>
        <mxCell id="WIyWlLk6GJQsqaUBKTNV-11" value="END" style="rounded=1;whiteSpace=wrap;html=1;fontSize=12;glass=0;strokeWidth=1;shadow=0;" parent="WIyWlLk6GJQsqaUBKTNV-1" vertex="1">
          <mxGeometry x="160" y="1117" width="200" height="40" as="geometry" />
        </mxCell>
        <mxCell id="PWNka681XxtPfNcfbGtj-0" value="&lt;div&gt;Ввод строки &lt;br&gt;&lt;/div&gt;&lt;div&gt;пользователем&lt;/div&gt;" style="shape=parallelogram;perimeter=parallelogramPerimeter;whiteSpace=wrap;html=1;fixedSize=1;" vertex="1" parent="WIyWlLk6GJQsqaUBKTNV-1">
          <mxGeometry x="160" y="110" width="200" height="60" as="geometry" />
        </mxCell>
        <mxCell id="PWNka681XxtPfNcfbGtj-4" value="" style="endArrow=classic;html=1;rounded=0;exitX=0.5;exitY=1;exitDx=0;exitDy=0;entryX=0.5;entryY=0;entryDx=0;entryDy=0;" edge="1" parent="WIyWlLk6GJQsqaUBKTNV-1" source="WIyWlLk6GJQsqaUBKTNV-3" target="PWNka681XxtPfNcfbGtj-0">
          <mxGeometry width="50" height="50" relative="1" as="geometry">
            <mxPoint x="330" y="460" as="sourcePoint" />
            <mxPoint x="380" y="410" as="targetPoint" />
          </mxGeometry>
        </mxCell>
        <mxCell id="PWNka681XxtPfNcfbGtj-5" value="&lt;div&gt;Разделить введенную строку&lt;/div&gt;" style="rounded=0;whiteSpace=wrap;html=1;" vertex="1" parent="WIyWlLk6GJQsqaUBKTNV-1">
          <mxGeometry x="160" y="201" width="200" height="60" as="geometry" />
        </mxCell>
        <mxCell id="PWNka681XxtPfNcfbGtj-6" value="" style="endArrow=classic;html=1;rounded=0;exitX=0.5;exitY=1;exitDx=0;exitDy=0;entryX=0.5;entryY=0;entryDx=0;entryDy=0;" edge="1" parent="WIyWlLk6GJQsqaUBKTNV-1" source="PWNka681XxtPfNcfbGtj-0" target="PWNka681XxtPfNcfbGtj-5">
          <mxGeometry width="50" height="50" relative="1" as="geometry">
            <mxPoint x="330" y="460" as="sourcePoint" />
            <mxPoint x="380" y="410" as="targetPoint" />
          </mxGeometry>
        </mxCell>
        <mxCell id="PWNka681XxtPfNcfbGtj-7" value="" style="endArrow=classic;html=1;rounded=0;exitX=0.5;exitY=1;exitDx=0;exitDy=0;entryX=0.5;entryY=0;entryDx=0;entryDy=0;" edge="1" target="PWNka681XxtPfNcfbGtj-8" parent="WIyWlLk6GJQsqaUBKTNV-1" source="PWNka681XxtPfNcfbGtj-5">
          <mxGeometry width="50" height="50" relative="1" as="geometry">
            <mxPoint x="240" y="270" as="sourcePoint" />
            <mxPoint x="380" y="510" as="targetPoint" />
          </mxGeometry>
        </mxCell>
        <mxCell id="PWNka681XxtPfNcfbGtj-11" value="" style="edgeStyle=orthogonalEdgeStyle;rounded=0;orthogonalLoop=1;jettySize=auto;html=1;" edge="1" parent="WIyWlLk6GJQsqaUBKTNV-1" source="PWNka681XxtPfNcfbGtj-8" target="PWNka681XxtPfNcfbGtj-10">
          <mxGeometry relative="1" as="geometry" />
        </mxCell>
        <mxCell id="PWNka681XxtPfNcfbGtj-8" value="&lt;div&gt;Записать получившиеся строки в массив array1&lt;br&gt;&lt;/div&gt;" style="rounded=0;whiteSpace=wrap;html=1;" vertex="1" parent="WIyWlLk6GJQsqaUBKTNV-1">
          <mxGeometry x="160" y="294" width="200" height="60" as="geometry" />
        </mxCell>
        <mxCell id="PWNka681XxtPfNcfbGtj-24" value="" style="edgeStyle=orthogonalEdgeStyle;rounded=0;orthogonalLoop=1;jettySize=auto;html=1;" edge="1" parent="WIyWlLk6GJQsqaUBKTNV-1" source="PWNka681XxtPfNcfbGtj-10" target="PWNka681XxtPfNcfbGtj-12">
          <mxGeometry relative="1" as="geometry" />
        </mxCell>
        <mxCell id="PWNka681XxtPfNcfbGtj-10" value="Высчитать число строк длиной &lt;br&gt;&amp;lt;= 3 символов в array1, создать новый массив array2 длиной в полученное число элементов" style="rounded=0;whiteSpace=wrap;html=1;" vertex="1" parent="WIyWlLk6GJQsqaUBKTNV-1">
          <mxGeometry x="160" y="392" width="200" height="60" as="geometry" />
        </mxCell>
        <mxCell id="PWNka681XxtPfNcfbGtj-25" value="" style="edgeStyle=orthogonalEdgeStyle;rounded=0;orthogonalLoop=1;jettySize=auto;html=1;" edge="1" parent="WIyWlLk6GJQsqaUBKTNV-1" source="PWNka681XxtPfNcfbGtj-12" target="WIyWlLk6GJQsqaUBKTNV-10">
          <mxGeometry relative="1" as="geometry" />
        </mxCell>
        <mxCell id="PWNka681XxtPfNcfbGtj-12" value="&lt;div&gt;i = 0;&lt;/div&gt;&lt;div&gt;j = 0;&lt;/div&gt;" style="rounded=0;whiteSpace=wrap;html=1;" vertex="1" parent="WIyWlLk6GJQsqaUBKTNV-1">
          <mxGeometry x="160" y="482" width="200" height="60" as="geometry" />
        </mxCell>
        <mxCell id="PWNka681XxtPfNcfbGtj-23" value="" style="edgeStyle=orthogonalEdgeStyle;rounded=0;orthogonalLoop=1;jettySize=auto;html=1;" edge="1" parent="WIyWlLk6GJQsqaUBKTNV-1" source="PWNka681XxtPfNcfbGtj-13" target="PWNka681XxtPfNcfbGtj-15">
          <mxGeometry relative="1" as="geometry" />
        </mxCell>
        <mxCell id="PWNka681XxtPfNcfbGtj-13" value="&lt;div&gt;Записать в array2[j] значение array1[i]&lt;/div&gt;&lt;div&gt;j++&lt;br&gt;&lt;/div&gt;" style="rounded=0;whiteSpace=wrap;html=1;" vertex="1" parent="WIyWlLk6GJQsqaUBKTNV-1">
          <mxGeometry x="160" y="687" width="200" height="60" as="geometry" />
        </mxCell>
        <mxCell id="PWNka681XxtPfNcfbGtj-17" value="" style="edgeStyle=orthogonalEdgeStyle;rounded=0;orthogonalLoop=1;jettySize=auto;html=1;" edge="1" parent="WIyWlLk6GJQsqaUBKTNV-1" source="PWNka681XxtPfNcfbGtj-15" target="PWNka681XxtPfNcfbGtj-16">
          <mxGeometry relative="1" as="geometry" />
        </mxCell>
        <mxCell id="PWNka681XxtPfNcfbGtj-15" value="i++" style="rounded=0;whiteSpace=wrap;html=1;" vertex="1" parent="WIyWlLk6GJQsqaUBKTNV-1">
          <mxGeometry x="160" y="789" width="200" height="60" as="geometry" />
        </mxCell>
        <mxCell id="PWNka681XxtPfNcfbGtj-20" value="" style="edgeStyle=orthogonalEdgeStyle;rounded=0;orthogonalLoop=1;jettySize=auto;html=1;entryX=0.5;entryY=0;entryDx=0;entryDy=0;" edge="1" parent="WIyWlLk6GJQsqaUBKTNV-1" source="PWNka681XxtPfNcfbGtj-16" target="PWNka681XxtPfNcfbGtj-18">
          <mxGeometry relative="1" as="geometry">
            <mxPoint x="260" y="999" as="targetPoint" />
          </mxGeometry>
        </mxCell>
        <mxCell id="PWNka681XxtPfNcfbGtj-21" value="НЕТ" style="edgeLabel;html=1;align=center;verticalAlign=middle;resizable=0;points=[];" vertex="1" connectable="0" parent="PWNka681XxtPfNcfbGtj-20">
          <mxGeometry x="0.2" y="4" relative="1" as="geometry">
            <mxPoint as="offset" />
          </mxGeometry>
        </mxCell>
        <mxCell id="PWNka681XxtPfNcfbGtj-16" value="&lt;div&gt;В массиве есть элемент&lt;/div&gt;&lt;div&gt;&amp;nbsp;array1[i]?&lt;/div&gt;" style="rhombus;whiteSpace=wrap;html=1;" vertex="1" parent="WIyWlLk6GJQsqaUBKTNV-1">
          <mxGeometry x="160" y="889" width="200" height="80" as="geometry" />
        </mxCell>
        <mxCell id="PWNka681XxtPfNcfbGtj-26" value="" style="edgeStyle=orthogonalEdgeStyle;rounded=0;orthogonalLoop=1;jettySize=auto;html=1;" edge="1" parent="WIyWlLk6GJQsqaUBKTNV-1" source="PWNka681XxtPfNcfbGtj-18" target="WIyWlLk6GJQsqaUBKTNV-11">
          <mxGeometry relative="1" as="geometry" />
        </mxCell>
        <mxCell id="PWNka681XxtPfNcfbGtj-18" value="Вывести массив array2" style="shape=document;whiteSpace=wrap;html=1;boundedLbl=1;" vertex="1" parent="WIyWlLk6GJQsqaUBKTNV-1">
          <mxGeometry x="160" y="1012" width="200" height="80" as="geometry" />
        </mxCell>
        <mxCell id="PWNka681XxtPfNcfbGtj-22" value="" style="endArrow=classic;html=1;rounded=0;exitX=0;exitY=0.5;exitDx=0;exitDy=0;entryX=0;entryY=0.5;entryDx=0;entryDy=0;" edge="1" parent="WIyWlLk6GJQsqaUBKTNV-1" source="PWNka681XxtPfNcfbGtj-16" target="WIyWlLk6GJQsqaUBKTNV-10">
          <mxGeometry width="50" height="50" relative="1" as="geometry">
            <mxPoint x="280" y="922" as="sourcePoint" />
            <mxPoint x="40" y="622" as="targetPoint" />
            <Array as="points">
              <mxPoint x="40" y="930" />
              <mxPoint x="40" y="612" />
            </Array>
          </mxGeometry>
        </mxCell>
        <mxCell id="PWNka681XxtPfNcfbGtj-31" value="&lt;div&gt;ДА&lt;/div&gt;" style="edgeLabel;html=1;align=center;verticalAlign=middle;resizable=0;points=[];" vertex="1" connectable="0" parent="PWNka681XxtPfNcfbGtj-22">
          <mxGeometry x="-0.782" y="1" relative="1" as="geometry">
            <mxPoint as="offset" />
          </mxGeometry>
        </mxCell>
        <mxCell id="PWNka681XxtPfNcfbGtj-27" value="" style="endArrow=classic;html=1;rounded=0;exitX=1;exitY=0.5;exitDx=0;exitDy=0;entryX=1;entryY=0.5;entryDx=0;entryDy=0;" edge="1" parent="WIyWlLk6GJQsqaUBKTNV-1" source="WIyWlLk6GJQsqaUBKTNV-10" target="PWNka681XxtPfNcfbGtj-15">
          <mxGeometry width="50" height="50" relative="1" as="geometry">
            <mxPoint x="420" y="635" as="sourcePoint" />
            <mxPoint x="520" y="820" as="targetPoint" />
            <Array as="points">
              <mxPoint x="520" y="610" />
              <mxPoint x="520" y="819" />
            </Array>
          </mxGeometry>
        </mxCell>
        <mxCell id="PWNka681XxtPfNcfbGtj-28" value="НЕТ" style="edgeLabel;html=1;align=center;verticalAlign=middle;resizable=0;points=[];" vertex="1" connectable="0" parent="PWNka681XxtPfNcfbGtj-27">
          <mxGeometry x="-0.1267" y="4" relative="1" as="geometry">
            <mxPoint as="offset" />
          </mxGeometry>
        </mxCell>
      </root>
    </mxGraphModel>
  </diagram>
</mxfile>
